<svg width="75" height="75" viewBox="0 0 75 75" fill="none" xmlns="http://www.w3.org/2000/svg">
<path fill-rule="evenodd" clip-rule="evenodd" d="M37.5 70.4125L36.9719 70.2188C26.2059 66.6687 17.3534 58.8816 12.4594 48.6563C6.48126 35.7031 7.50001 13.8906 7.52813 12.9688L7.60313 11.4844H9.09063C18.6938 11.6962 28.1903 9.43645 36.6688 4.92188L37.5 4.40625L38.3344 4.92813C46.8114 9.44363 56.3071 11.7035 65.9094 11.4906H67.3969L67.4719 12.975C67.5156 13.8969 68.5188 35.7094 62.5406 48.6688C57.6491 58.8948 48.7971 66.6824 38.0313 70.2313L37.5 70.4125ZM15.3125 47.3531C19.7646 56.6383 27.7584 63.7471 37.5 67.0844C47.2484 63.7506 55.2486 56.6399 59.7031 47.35C64.5031 36.9469 64.5094 19.7031 64.3906 14.5906C55.0384 14.5569 45.8257 12.3193 37.5 8.05937C29.1735 12.3204 19.9596 14.558 10.6062 14.5906C10.4906 19.7031 10.4969 36.9469 15.2937 47.3531H15.3125Z" fill="black"/>
</svg>
