<svg xmlns="http://www.w3.org/2000/svg" viewBox="0 0 20 20"><defs><style>.cls-1{fill:#fff;}</style></defs><title>bofa_icon_info2_ko</title><g id="ICON_OUTLINES" data-name="ICON OUTLINES"><path class="cls-1" d="M12,2A10,10,0,1,0,22,12,10.011,10.011,0,0,0,12,2Zm0,19a9,9,0,1,1,9-9A9.01,9.01,0,0,1,12,21Z" transform="translate(-2 -2)"/><path class="cls-1" d="M11.992,6.848a.632.632,0,0,0-.617.64.625.625,0,0,0,1.25,0A.635.635,0,0,0,11.992,6.848Z" transform="translate(-2 -2)"/><rect class="cls-1" x="9.5" y="7" width="1" height="8"/></g></svg>